<svg width="101" height="26" viewBox="0 0 101 26" fill="none" xmlns="http://www.w3.org/2000/svg">
<path d="M24.2889 6.6057L23.7257 5.62363C23.6361 5.46761 23.4784 5.36208 23.2991 5.33838C23.1198 5.31468 22.9398 5.37551 22.8123 5.50283L21.517 6.78802C21.3218 6.98288 21.2916 7.2873 21.4449 7.51618C21.9172 8.23292 22.2957 9.00645 22.5712 9.81813C23.6156 12.8964 23.1037 16.2857 21.1959 18.9242C19.2881 21.5627 16.2178 23.1276 12.947 23.1287C11.2873 23.1331 9.6522 22.7301 8.18727 21.9553L10.3779 19.7787C13.1553 20.8219 16.2926 20.0789 18.2969 17.903C20.3012 15.7271 20.768 12.5578 19.4751 9.90313C19.3936 9.73454 19.2349 9.61567 19.0493 9.58432C18.8636 9.55297 18.6743 9.61304 18.5413 9.74541L17.2303 11.0385C17.0882 11.1794 17.0298 11.3834 17.076 11.5775L17.1887 12.0451C17.5848 13.7189 16.944 15.4665 15.5569 16.4954C14.1699 17.5243 12.3006 17.6387 10.7969 16.7865L10.2191 16.4577C9.99207 16.3278 9.70545 16.366 9.52081 16.5506L4.16976 21.8636C4.05159 21.9809 3.99013 22.1432 4.00114 22.3088C4.01213 22.4745 4.09453 22.6273 4.22721 22.7282L5.01562 23.3289C7.28926 25.0689 10.0811 26.0086 12.9516 26C17.6021 25.994 21.8989 23.5335 24.2338 19.5393C26.5687 15.545 26.5896 10.6194 24.2889 6.6057Z" fill="url(#paint0_linear_5741_10112)"/>
<path d="M20.9883 2.67177C18.7152 0.931469 15.9236 -0.00841682 13.0533 0.000118661C8.40101 0.00376813 4.10165 2.46404 1.76584 6.45937C-0.569964 10.4547 -0.58971 15.3821 1.71401 19.3957L2.27708 20.3765C2.36696 20.5324 2.52478 20.6377 2.70401 20.6616C2.88324 20.6854 3.06345 20.6252 3.19153 20.4985L4.48436 19.2146C4.67816 19.0196 4.70821 18.7166 4.55645 18.4877C4.08378 17.7714 3.70531 16.998 3.43028 16.1863C2.38605 13.1087 2.89791 9.72012 4.80545 7.08219C6.71301 4.44426 9.78291 2.87968 13.0533 2.87865C14.7129 2.87492 16.3474 3.27908 17.8114 4.0551L15.6198 6.23016C13.3914 5.39146 10.8901 5.69364 8.92918 7.03848C6.96822 8.38332 5.79788 10.5991 5.7986 12.9656C5.7986 13.0853 5.83126 13.631 5.8414 13.7249C5.9302 14.5509 6.16144 15.3554 6.52497 16.1035C6.60665 16.2722 6.76557 16.3909 6.9513 16.4222C7.13703 16.4536 7.32653 16.3936 7.45969 16.2612L8.77055 14.9584C8.91249 14.8178 8.97126 14.6144 8.92595 14.4205L8.81334 13.952C8.4168 12.2786 9.05747 10.5309 10.4446 9.5023C11.8317 8.47367 13.7011 8.35991 15.2044 9.21264L15.782 9.54142C16.0093 9.67006 16.2951 9.63206 16.4803 9.4486L21.8295 4.13673C21.9479 4.01935 22.0095 3.85703 21.9987 3.69129C21.988 3.52555 21.9058 3.37246 21.7733 3.27118L20.9883 2.67177Z" fill="url(#paint1_linear_5741_10112)"/>
<path d="M42.3865 16.3438C42.1877 16.1786 41.901 16.1853 41.7098 16.3597C40.8821 17.0168 39.922 17.6251 38.5188 17.6251C35.9499 17.6251 33.8599 15.4115 33.8599 12.6885C33.8599 9.96551 35.9421 7.73254 38.4998 7.73254C39.611 7.73254 40.811 8.21119 41.6932 9.00365C41.7938 9.12314 41.9412 9.19063 42.0954 9.18784C42.229 9.17698 42.351 9.10622 42.4287 8.99455L43.2643 8.11456C43.3718 8.00811 43.4309 7.86057 43.4276 7.70753C43.4213 7.55203 43.3521 7.40624 43.2365 7.30505C41.7777 6.00437 40.312 5.42453 38.4799 5.42453C34.5687 5.42453 31.3865 8.70122 31.3865 12.7283C31.3896 16.7366 34.5627 19.9859 38.4799 19.9922C40.2649 20.0139 41.9846 19.3059 43.2576 18.0253C43.3693 17.9088 43.4303 17.7509 43.4265 17.5877C43.4235 17.4577 43.369 17.3345 43.2754 17.2465L42.3865 16.3438Z" fill="#3C3650"/>
<path d="M48.4676 5.62216H47.202C46.909 5.63223 46.674 5.87365 46.6655 6.17358V19.2485C46.6735 19.5489 46.9086 19.7909 47.202 19.801H48.4676C48.7612 19.7909 48.9963 19.5489 49.0043 19.2485V6.17358C48.9957 5.87365 48.7607 5.63223 48.4676 5.62216Z" fill="#3C3650"/>
<path d="M63.4443 10.0233C63.4443 7.59704 61.4921 5.62216 59.0921 5.62216H53.8732C53.5765 5.62341 53.3366 5.86992 53.3366 6.17358V19.2485C53.336 19.5526 53.576 19.7998 53.8732 19.801H55.1199C55.4134 19.7909 55.6486 19.5489 55.6566 19.2485V14.3857H58.2721L60.7777 19.5191C60.8705 19.6904 61.0473 19.7963 61.2388 19.7954H62.7343C62.9266 19.8019 63.1076 19.7025 63.2088 19.535C63.3049 19.3582 63.3049 19.1432 63.2088 18.9665L60.6666 14.1186C62.3843 13.3375 63.4443 11.7844 63.4443 10.0233ZM61.1054 10.0631C61.1054 11.2943 60.1132 12.3369 58.9387 12.3369H55.6955V7.89037H58.9343C60.111 7.89037 61.101 8.88521 61.101 10.0631H61.1054Z" fill="#3C3650"/>
<path d="M77.0654 16.3438C76.8666 16.1786 76.58 16.1853 76.3888 16.3597C75.561 17.0168 74.601 17.6251 73.1977 17.6251C70.6288 17.6251 68.5388 15.4115 68.5388 12.6885C68.5388 9.96551 70.6199 7.73254 73.1776 7.73254C74.2888 7.73254 75.4888 8.21119 76.3721 9.00365C76.4734 9.12434 76.6223 9.19198 76.7777 9.18784C76.9112 9.17698 77.0332 9.10622 77.111 8.99455L77.9466 8.11456C78.0537 8.00799 78.1126 7.86042 78.1088 7.70753C78.1035 7.55205 78.0344 7.40601 77.9187 7.30505C76.4632 6.00437 74.9976 5.42453 73.1655 5.42453C69.2544 5.42453 66.0722 8.70122 66.0722 12.7283C66.0752 16.7366 69.2483 19.9859 73.1655 19.9922C74.9504 20.0136 76.6701 19.3057 77.9432 18.0253C78.0551 17.9084 78.116 17.75 78.1121 17.5865C78.1092 17.4565 78.0547 17.3333 77.961 17.2454L77.0654 16.3438Z" fill="#3C3650"/>
<path d="M88.7054 17.6056H83.6832V6.17358C83.6746 5.87365 83.4396 5.63223 83.1466 5.62216H81.881C81.5842 5.62341 81.3444 5.86992 81.3444 6.17358V19.2485C81.3437 19.5526 81.5838 19.7998 81.881 19.801H88.7054C88.8484 19.8008 88.9853 19.7424 89.0862 19.6387C89.187 19.5352 89.2435 19.3948 89.2433 19.2485V18.1627C89.2447 18.0157 89.1887 17.8741 89.0877 17.7695C88.9867 17.6649 88.8492 17.6058 88.7054 17.6056Z" fill="#3C3650"/>
<path d="M100.074 7.8347C100.371 7.83345 100.611 7.58694 100.611 7.28328V6.17703C100.611 5.87338 100.371 5.62687 100.074 5.62561H92.4077C92.1109 5.62687 91.871 5.87338 91.871 6.17703V19.252C91.8704 19.5561 92.1104 19.8033 92.4077 19.8045H100.074C100.371 19.8033 100.612 19.5561 100.611 19.252V18.1662C100.611 17.8625 100.371 17.616 100.074 17.6147H94.1854V13.7139H99.1309C99.4281 13.7132 99.6687 13.4666 99.6687 13.1625V12.0574C99.6607 11.7565 99.4249 11.5143 99.1309 11.5047H94.1888V7.8347H100.074Z" fill="#3C3650"/>
<defs>
<linearGradient id="paint0_linear_5741_10112" x1="8.34382" y1="25.5178" x2="25.6523" y2="8.32876" gradientUnits="userSpaceOnUse">
<stop stop-color="#B090F5"/>
<stop offset="1" stop-color="#5FBFFF"/>
</linearGradient>
<linearGradient id="paint1_linear_5741_10112" x1="-0.721892" y1="16.5917" x2="16.5857" y2="-0.593731" gradientUnits="userSpaceOnUse">
<stop stop-color="#68D7FA"/>
<stop offset="1" stop-color="#4EE498"/>
</linearGradient>
</defs>
</svg>
